<svg width="984" height="159" viewBox="0 0 984 159" fill="none" xmlns="http://www.w3.org/2000/svg">
<path d="M11.4039 126V34.507H52.9679C62.9014 34.507 71.6586 36.424 79.2394 40.258C86.8203 44.0049 92.7455 49.2766 97.0152 56.0732C101.285 62.8699 103.42 70.93 103.42 80.2535C103.42 89.49 101.285 97.55 97.0152 104.434C92.7455 111.23 86.8203 116.546 79.2394 120.38C71.6586 124.127 62.9014 126 52.9679 126H11.4039ZM32.578 108.616H51.9222C58.0218 108.616 63.2935 107.484 67.7375 105.218C72.2685 102.865 75.754 99.5542 78.1938 95.2845C80.7207 91.0148 81.9842 86.0045 81.9842 80.2535C81.9842 74.4154 80.7207 69.4051 78.1938 65.2225C75.754 60.9529 72.2685 57.6853 67.7375 55.4197C63.2935 53.067 58.0218 51.8907 51.9222 51.8907H32.578V108.616ZM119.388 126V34.507H164.089C175.591 34.507 184.217 36.6854 189.968 41.0422C195.806 45.3991 198.726 51.15 198.726 58.2952C198.726 63.0877 197.549 67.2702 195.197 70.8428C192.844 74.3283 189.62 77.0295 185.524 78.9465C181.429 80.8635 176.724 81.822 171.408 81.822L173.892 76.4631C179.643 76.4631 184.74 77.4216 189.184 79.3386C193.628 81.1684 197.07 83.9132 199.51 87.573C202.037 91.2327 203.3 95.7202 203.3 101.035C203.3 108.878 200.207 115.021 194.02 119.465C187.834 123.822 178.728 126 166.703 126H119.388ZM140.431 110.054H165.135C170.624 110.054 174.763 109.183 177.551 107.44C180.427 105.61 181.865 102.735 181.865 98.8135C181.865 94.9795 180.427 92.1476 177.551 90.3177C174.763 88.4008 170.624 87.4423 165.135 87.4423H138.863V72.0192H161.475C166.616 72.0192 170.537 71.1478 173.238 69.4051C176.027 67.5752 177.421 64.8304 177.421 61.1707C177.421 57.5981 176.027 54.9405 173.238 53.1977C170.537 51.3679 166.616 50.453 161.475 50.453H140.431V110.054ZM275.822 71.3656H319.869V87.8344H275.822V71.3656ZM277.39 109.008H327.188V126H256.347V34.507H325.489V51.4986H277.39V109.008ZM332.686 126L372.028 71.7577V87.1808L334.385 34.507H358.435L384.445 71.2349L374.381 71.3656L399.999 34.507H423.003L385.621 86.2659V71.1042L425.225 126H400.783L373.858 87.1808H383.53L356.997 126H332.686ZM433.512 126V34.507H473.116C481.306 34.507 488.364 35.8576 494.29 38.5589C500.215 41.173 504.79 44.9634 508.014 49.9301C511.238 54.8969 512.85 60.8222 512.85 67.7059C512.85 74.5025 511.238 80.3842 508.014 85.351C504.79 90.3177 500.215 94.1517 494.29 96.853C488.364 99.467 481.306 100.774 473.116 100.774H445.276L454.686 91.2327V126H433.512ZM454.686 93.5854L445.276 83.5211H471.939C478.474 83.5211 483.354 82.1269 486.578 79.3386C489.802 76.5502 491.414 72.6727 491.414 67.7059C491.414 62.652 489.802 58.7309 486.578 55.9425C483.354 53.1542 478.474 51.76 471.939 51.76H445.276L454.686 41.6958V93.5854ZM527.966 126V34.507H549.141V108.747H595.018V126H527.966Z" fill="white"/>
<path d="M713.989 126V34.507H753.593C761.783 34.507 768.842 35.8576 774.767 38.5589C780.692 41.173 785.267 44.9634 788.491 49.9301C791.715 54.8969 793.327 60.8222 793.327 67.7059C793.327 74.5025 791.715 80.3842 788.491 85.351C785.267 90.2306 780.692 93.9775 774.767 96.5915C768.842 99.2056 761.783 100.513 753.593 100.513H725.753L735.163 91.2327V126H713.989ZM772.153 126L749.279 92.8011H771.891L795.026 126H772.153ZM735.163 93.5854L725.753 83.6518H752.416C758.952 83.6518 763.831 82.2577 767.055 79.4693C770.279 76.5938 771.891 72.6727 771.891 67.7059C771.891 62.652 770.279 58.7309 767.055 55.9425C763.831 53.1542 758.952 51.76 752.416 51.76H725.753L735.163 41.6958V93.5854ZM829.578 71.3656H873.625V87.8344H829.578V71.3656ZM831.146 109.008H880.945V126H810.103V34.507H879.245V51.4986H831.146V109.008ZM897.792 126V34.507H937.396C945.586 34.507 952.644 35.8576 958.57 38.5589C964.495 41.173 969.07 44.9634 972.294 49.9301C975.518 54.8969 977.13 60.8222 977.13 67.7059C977.13 74.5025 975.518 80.3842 972.294 85.351C969.07 90.2306 964.495 93.9775 958.57 96.5915C952.644 99.2056 945.586 100.513 937.396 100.513H909.556L918.966 91.2327V126H897.792ZM955.956 126L933.082 92.8011H955.694L978.829 126H955.956ZM918.966 93.5854L909.556 83.6518H936.219C942.754 83.6518 947.634 82.2577 950.858 79.4693C954.082 76.5938 955.694 72.6727 955.694 67.7059C955.694 62.652 954.082 58.7309 950.858 55.9425C947.634 53.1542 942.754 51.76 936.219 51.76H909.556L918.966 41.6958V93.5854Z" fill="white"/>
<path fill-rule="evenodd" clip-rule="evenodd" d="M638.247 61.5756V31.5508H660.4V61.5756L688.091 45.5881L699.167 64.7731L671.476 80.7607L699.062 96.6876L687.986 115.873L660.4 99.9457V129.615H638.247V99.9457L610.66 115.873L599.584 96.6876L627.17 80.7607L599.479 64.7731L610.555 45.5881L638.247 61.5756Z" fill="#33D3D4"/>
</svg>
